<svg xmlns="http://www.w3.org/2000/svg" viewBox="0 0 905.28 186.57"><defs><style>.cls-1{fill:#123028;}.cls-2{fill:#b0ffe4;}</style></defs><g id="Layer_2" data-name="Layer 2"><g id="Layer_1-2" data-name="Layer 1"><path class="cls-1" d="M0,16.05H52.84C82,16.05,96.66,30.1,96.66,49.89c0,15.53-10.11,25.26-23.84,28.35v1.29c15,.71,29,12.5,29,32,0,21-15.79,36.47-45.43,36.47H0ZM48.59,71.28C60,71.28,68.5,65,68.5,54.53c0-9.54-7-15.92-19.39-15.92H27.9V71.28Zm2.06,53.94c15.6,0,22.36-6.51,22.36-16.43C73,97.9,64.7,90.16,51.3,90.16H27.9v35.06Z"/><path class="cls-1" d="M170.14,98.93c0-30.68,18.69-51.17,48.72-51.17s48.72,20.49,48.72,51.17c0,30.48-18.69,51-48.72,51S170.14,129.41,170.14,98.93Zm69.54-.19c0-17.28-7.09-30-20.69-30-13.85,0-20.94,12.76-20.94,30s7.09,30,20.94,30C232.59,128.7,239.68,116,239.68,98.74Z"/><path class="cls-1" d="M284.85,159.63l25.39-3.41c2.26,5.35,8.38,10.63,20.5,10.63,11.92,0,20.62-5.28,20.62-18.24v-18.1H350.2c-3.61,8.18-12.44,16.11-28.23,16.11-22.29,0-40.15-15.34-40.15-48.27,0-33.71,18.37-50.59,40.09-50.59,16.56,0,24.62,9.86,28.29,17.92h1V49.05h27.26V149c0,24.68-20.11,37.57-48.4,37.57C303.41,186.57,288.14,174.58,284.85,159.63Zm66.64-61.41c0-17.34-7.48-28.61-20.82-28.61-13.59,0-20.81,11.79-20.81,28.61,0,17.08,7.34,27.77,20.81,27.77C343.88,126,351.49,115.68,351.49,98.22Z"/><path class="cls-1" d="M469.93,148H442.48v-99h26.17V66.51h1.16c4.44-11.53,15.07-18.75,29.77-18.75,20.62,0,34.15,14.18,34.15,37.25v63H506.28V89.91c.06-12.12-6.57-19.34-17.59-19.34S470,78.05,469.93,90.81Z"/><path class="cls-1" d="M551.33,98.93c0-30.68,18.69-51.17,48.72-51.17s48.72,20.49,48.72,51.17c0,30.48-18.69,51-48.72,51S551.33,129.41,551.33,98.93Zm69.53-.19c0-17.28-7.09-30-20.68-30-13.86,0-20.95,12.76-20.95,30s7.09,30,20.95,30C613.77,128.7,620.86,116,620.86,98.74Z"/><path class="cls-1" d="M662.69,98.93c0-30.68,18.69-51.17,48.72-51.17s48.71,20.49,48.71,51.17c0,30.48-18.68,51-48.71,51S662.69,129.41,662.69,98.93Zm69.53-.19c0-17.28-7.09-30-20.68-30-13.86,0-20.95,12.76-20.95,30s7.09,30,20.95,30C725.13,128.7,732.22,116,732.22,98.74Z"/><path class="cls-1" d="M778,16.05h27.45V86.62H807l31.7-37.57h31.51L833.46,91.9,872.06,148H839.91l-27-39.89-7.41,8.44V148H778Z"/><path class="cls-2" d="M136.43,142a23.64,23.64,0,0,1-6.12-17.15c.49-25.95.51-75.14.71-101.1,0-1.24,0-2.49,0-3.73.22-3.66,1.94-6.26,5.81-6.22s5.47,2.6,5.46,6.4c0,13.35.06,41,0,54.33,0,14.41-.48,37.76,0,52.15C142.53,132.78,139.5,136.91,136.43,142Z"/><path class="cls-1" d="M152.43,16c-1.31-6.29-5.19-10.62-11.28-12.28a18.17,18.17,0,0,0-9.26-.16c-3.51.89-7.27,2.58-9.19,5.8a15.46,15.46,0,0,0-1.86,6.36c-.55,5.3-.52,10.62-.59,15.94q-.1,7.75-.18,15.51-.07,8.53-.13,17.06-.06,8.77-.09,17.54c0,5.66,0,11.31-.06,17l0,15.33v8.71c0,5.37.24,11.08,2,16,2,5.56,5.88,10.48,9.09,15.58,2.81,4.47,6.64,4.77,9.69.43A167.45,167.45,0,0,0,150,139.36a16.68,16.68,0,0,0,2.22-7.45c.34-29,.5-81.15.66-110.12A27.68,27.68,0,0,0,152.43,16ZM142.16,74.49c0,14.41-.48,37.76,0,52.15.19,6.14-2.83,10.27-5.91,15.32a23.59,23.59,0,0,1-6.11-17.15c.49-25.95.51-75.14.71-101.1,0-1.24,0-2.49,0-3.73.22-3.66,1.94-6.26,5.8-6.22s5.47,2.6,5.47,6.4C142.09,33.51,142.18,61.15,142.16,74.49Z"/><path class="cls-1" d="M875.3,3.41h-5V0h14.14V3.41h-5v13H875.3Zm16.13,3.73v9.28h-4.12V0h4.9l4.09,10.84L900.36,0h4.92V16.42h-4.14V7.18l-3.68,9.24h-2.32Z"/></g></g></svg>